<!-- <svg viewBox="0 50 512 512" >
<path fill="#828282" d="M150.65,100.682c0,27.992-22.508,50.683-50.273,50.683c-27.765,0-50.273-22.691-50.273-50.683
C50.104,72.691,72.612,50,100.377,50C128.143,50,150.65,72.691,150.65,100.682z M143.294,187.333H58.277V462h85.017V187.333z
M279.195,187.333h-81.541V462h81.541c0,0,0-101.877,0-144.181c0-38.624,17.779-61.615,51.807-61.615
c31.268,0,46.289,22.071,46.289,61.615c0,39.545,0,144.181,0,144.181h84.605c0,0,0-100.344,0-173.915
s-41.689-109.131-99.934-109.131s-82.768,45.369-82.768,45.369V187.333z"/>
</svg>
 -->
<svg viewBox="0 0 20 20" fill="none"><path d="M19.75 5.39v13.22a1.14 1.14 0 0 1-1.14 1.14H5.39a1.14 1.14 0 0 1-1.14-1.14V5.39a1.14 1.14 0 0 1 1.14-1.14h13.22a1.14 1.14 0 0 1 1.14 1.14zM8.81 10.18H6.53v7.3H8.8v-7.3zM9 7.67a1.31 1.31 0 0 0-1.3-1.32h-.04a1.32 1.32 0 0 0 0 2.64A1.31 1.31 0 0 0 9 7.71v-.04zm8.46 5.37c0-2.2-1.4-3.05-2.78-3.05a2.6 2.6 0 0 0-2.3 1.18h-.07v-1h-2.14v7.3h2.28V13.6a1.51 1.51 0 0 1 1.36-1.63h.09c.72 0 1.26.45 1.26 1.6v3.91h2.28l.02-4.43z" fill="#A8A8A8"></path></svg>